<?xml version="1.0" encoding="UTF-8"?>
<svg width="32px" height="32px" viewBox="0 0 32 32" version="1.1" xmlns="http://www.w3.org/2000/svg" xmlns:xlink="http://www.w3.org/1999/xlink">
    <!-- Generator: Sketch 46.1 (44463) - http://www.bohemiancoding.com/sketch -->
    <title>icon-instagram</title>
    <desc>Created with Sketch.</desc>
    <defs></defs>
    <g id="Page-1" stroke="none" stroke-width="1" fill="none" fill-rule="evenodd">
        <g id="icon-instagram" fill="#000000">
            <path d="M28,8 C28,9.104 27.106,10 26,10 L24,10 C22.896,10 22,9.104 22,8 L22,6 C22,4.896 22.896,4 24,4 L26,4 C27.106,4 28,4.896 28,6 L28,8 Z M28,26 C28,27.105 27.106,28 26,28 L6,28 C4.894,28 4,27.105 4,26 L4,16 C4,14.895 4.894,14 6,14 L8.284,14 C8.116,14.643 8,15.305 8,16 C8,20.418 11.582,24 16,24 C20.418,24 24,20.418 24,16 C24,15.305 23.882,14.643 23.716,14 L26,14 C27.106,14 28,14.895 28,16 L28,26 Z M16,12 C19.684,12 20,16 20,16 C20,16 20.118,20 16,20 C11.884,20 12,16 12,16 C12,16 12.316,12 16,12 L16,12 Z M28,0 L4,0 C1.792,0 0,1.792 0,4 L0,28 C0,30.208 1.792,32 4,32 L28,32 C30.208,32 32,30.208 32,28 L32,4 C32,1.792 30.208,0 28,0 L28,0 Z" id="Page-1"></path>
        </g>
    </g>
</svg>