<?xml version="1.0" encoding="UTF-8"?>
<svg width="32px" height="32px" viewBox="0 0 32 32" version="1.1" xmlns="http://www.w3.org/2000/svg" xmlns:xlink="http://www.w3.org/1999/xlink">
    <!-- Generator: Sketch 46.1 (44463) - http://www.bohemiancoding.com/sketch -->
    <title>icon-linkedin</title>
    <desc>Created with Sketch.</desc>
    <defs>
        <polygon id="path-1" points="0.0002 31.5537 32 31.5537 32 0 0.0002 0"></polygon>
    </defs>
    <g id="Page-1" stroke="none" stroke-width="1" fill="none" fill-rule="evenodd">
        <g id="icon-linkedin">
            <g id="Page-1">
                <mask id="mask-2" fill="white">
                    <use xlink:href="#path-1"></use>
                </mask>
                <g id="Clip-2"></g>
                <path d="M11.1162,16.564 C11.1162,13.819 11.0262,11.524 10.9352,9.543 L16.8762,9.543 L17.1932,12.605 L17.3282,12.605 C18.2272,11.163 20.4332,9.049 24.1242,9.049 C28.6242,9.049 32.0002,12.064 32.0002,18.546 L32.0002,31.554 L25.1592,31.554 L25.1592,19.356 C25.1592,16.521 24.1672,14.585 21.6922,14.585 C19.8032,14.585 18.6792,15.89 18.1832,17.15 C18.0022,17.6 17.9572,18.23 17.9572,18.861 L17.9572,31.554 L11.1162,31.554 L11.1162,16.564 Z M0.1812,31.552 L7.0222,31.552 L7.0222,9.543 L0.1812,9.543 L0.1812,31.552 Z M7.2462,3.421 C7.2462,5.311 5.8502,6.841 3.5552,6.841 C1.3952,6.841 0.0002,5.311 0.0002,3.421 C0.0002,1.486 1.4422,0 3.6462,0 C5.8502,0 7.2012,1.486 7.2462,3.421 L7.2462,3.421 Z" id="Fill-1" fill="#000000" mask="url(#mask-2)"></path>
            </g>
        </g>
    </g>
</svg>